<?xml version="1.0" encoding="utf-8"?>
<!-- Generator: Adobe Illustrator 24.0.0, SVG Export Plug-In . SVG Version: 6.00 Build 0)  -->
<svg version="1.2" baseProfile="tiny" id="Layer_1" xmlns="http://www.w3.org/2000/svg" xmlns:xlink="http://www.w3.org/1999/xlink"
	 x="0px" y="0px" width="548.61px" height="329.53px" viewBox="0 0 548.61 329.53" xml:space="preserve">
<g>
	<polygon fill="#00AEEF" points="97.27,103.8 39.3,103.8 53.37,140.97 110.56,140.97 	"/>
	<polygon fill="#00AEEF" points="60.16,0 0,0 29.46,77.8 87.97,77.8 	"/>
	<polygon fill="#00AEEF" points="152.41,166.97 142.89,193.61 198.89,193.61 208.96,166.97 	"/>
	<polygon fill="#00AEEF" points="218.79,140.97 232.84,103.8 175,103.8 161.71,140.97 	"/>
	<polygon fill="#00AEEF" points="119.85,166.97 63.22,166.97 73.31,193.61 129.38,193.61 	"/>
	<polygon fill="#00AEEF" points="272.07,0 212.11,0 184.29,77.8 242.67,77.8 	"/>
	<polygon fill="#00AEEF" points="112.11,296.09 160.16,296.09 161.21,293.31 111.05,293.31 	"/>
	<polygon fill="#00AEEF" points="173.15,261.72 99.1,261.72 101.21,267.31 171.04,267.31 	"/>
	<polygon fill="#00AEEF" points="189.07,219.61 83.15,219.61 89.25,235.72 182.98,235.72 	"/>
	<rect x="304.1" y="166.97" fill="#00AEEF" width="56.05" height="26.64"/>
	<rect x="304.1" y="261.72" fill="#00AEEF" width="56.05" height="5.58"/>
	<path fill="#00AEEF" d="M381.96,193.61h64.39l-11.78-20.76c4.89-1.72,9.47-3.69,13.74-5.89h-81.5L381.96,193.61z"/>
	<polygon fill="#00AEEF" points="423.86,267.31 488.16,267.31 484.99,261.72 420.69,261.72 	"/>
	<path fill="#00AEEF" d="M360.16,53.52h33.2c13.15,0,23.57,3.49,31.25,10.45c4.26,3.86,7.33,8.47,9.23,13.83h57.78
		c-2.21-21.01-11.09-38.65-26.68-52.89C446.78,8.3,423.44,0,394.92,0H304.1v77.8h56.05V53.52z"/>
	<polygon fill="#00AEEF" points="405.9,235.72 470.24,235.72 461.1,219.61 396.74,219.61 	"/>
	<polygon fill="#00AEEF" points="440.23,296.09 504.49,296.09 502.91,293.31 438.65,293.31 	"/>
	<path fill="#00AEEF" d="M434.66,103.8c-1.76,6.44-5.11,11.88-10.05,16.32c-7.68,6.9-18.1,10.35-31.25,10.35h-33.2V103.8H304.1
		v37.17H478.2c6.96-10.42,11.33-22.81,13.09-37.17H434.66z"/>
	<rect x="304.1" y="219.61" fill="#00AEEF" width="56.05" height="16.11"/>
	<rect x="304.1" y="293.31" fill="#00AEEF" width="56.05" height="2.79"/>
	<line fill="#00AEEF" x1="360.16" y1="166.97" x2="366.81" y2="166.97"/>
	<line fill="#00AEEF" x1="129.38" y1="193.61" x2="136.13" y2="212.5"/>
	<polyline fill="#00AEEF" points="182.98,235.72 173.15,261.72 304.1,261.72 304.1,235.72 	"/>
</g>
<g>
	<path fill="#EB0A8C" stroke="#FFFFFF" stroke-width="2" stroke-miterlimit="10" d="M62.92,287.19c-28.46,0-51.78-23.18-51.78-51.78
		c0-28.61,23.33-51.78,51.78-51.78c14.96,0,29.19,6.45,39.02,17.6c1.76,2.05,1.47,4.99-0.44,6.6c-1.91,1.76-4.84,1.61-6.6-0.44
		c-8.07-9.24-19.66-14.52-31.98-14.52c-23.33,0-42.4,19.07-42.4,42.54c0,23.33,19.07,42.4,42.4,42.4c12.32,0,23.91-5.28,31.98-14.52
		c1.76-1.91,4.69-2.05,6.6-0.44c1.91,1.76,2.2,4.69,0.44,6.6C92.11,280.73,77.88,287.19,62.92,287.19z"/>
	<path fill="#EB0A8C" stroke="#FFFFFF" stroke-width="2" stroke-miterlimit="10" d="M122.04,188.32v94.18
		c0,2.64-2.05,4.69-4.69,4.69s-4.69-2.05-4.69-4.69v-94.18c0-2.64,2.05-4.69,4.69-4.69S122.04,185.68,122.04,188.32z"/>
	<path fill="#EB0A8C" stroke="#FFFFFF" stroke-width="2" stroke-miterlimit="10" d="M195.68,212.52v69.97
		c0,2.64-2.05,4.69-4.69,4.69s-4.69-2.05-4.69-4.69v-5.28c-5.87,6.16-14.08,9.98-23.33,9.98c-9.09,0-17.16-3.67-22.88-10.12
		c-5.43-6.16-8.51-14.67-8.51-23.77v-40.78c0-2.49,2.05-4.55,4.69-4.55s4.69,2.05,4.69,4.55v40.78c0,14.23,9.24,24.5,22,24.5
		c13.06,0,23.33-10.71,23.33-24.5v-0.59c0-0.15,0-0.29,0-0.44v-39.75c0-2.49,2.05-4.55,4.69-4.55S195.68,210.03,195.68,212.52z"/>
	<path fill="#EB0A8C" stroke="#FFFFFF" stroke-width="2" stroke-miterlimit="10" d="M280.91,247.58c0,22.59-16.14,39.61-37.55,39.61
		c-11.44,0-21.27-4.84-28.02-12.91v8.21c0,2.64-2.2,4.69-4.69,4.69c-2.64,0-4.69-2.05-4.69-4.69v-94.18c0-2.64,2.05-4.69,4.69-4.69
		c2.49,0,4.69,2.05,4.69,4.69v32.42c6.75-7.92,16.58-12.76,28.02-12.76C264.77,207.97,280.91,224.99,280.91,247.58z M271.52,247.58
		c0-17.31-12.03-30.37-28.17-30.37c-15.99,0-28.02,13.06-28.02,30.37c0,17.16,12.03,30.22,28.02,30.22
		C259.49,277.8,271.52,264.75,271.52,247.58z"/>
	<path fill="#EB0A8C" stroke="#FFFFFF" stroke-width="2" stroke-miterlimit="10" d="M364.68,247.58c0,22.59-16.14,39.61-37.55,39.61
		c-11.44,0-21.27-4.84-28.02-12.91v8.21c0,2.64-2.2,4.69-4.69,4.69c-2.64,0-4.69-2.05-4.69-4.69v-94.18c0-2.64,2.05-4.69,4.69-4.69
		c2.49,0,4.69,2.05,4.69,4.69v32.42c6.75-7.92,16.58-12.76,28.02-12.76C348.54,207.97,364.68,224.99,364.68,247.58z M355.29,247.58
		c0-17.31-12.03-30.37-28.17-30.37c-15.99,0-28.02,13.06-28.02,30.37c0,17.16,12.03,30.22,28.02,30.22
		C343.26,277.8,355.29,264.75,355.29,247.58z"/>
	<path fill="#EB0A8C" stroke="#FFFFFF" stroke-width="2" stroke-miterlimit="10" d="M379.35,190.52c2.93,0,5.13,2.35,5.13,4.99
		c0,2.79-2.2,4.99-5.13,4.99c-2.79,0-5.13-2.2-5.13-4.99C374.21,192.86,376.56,190.52,379.35,190.52z M379.35,287.19
		c-2.49,0-4.69-2.05-4.69-4.69v-69.97c0-2.49,2.2-4.55,4.69-4.55c2.64,0,4.69,2.05,4.69,4.55v69.97
		C384.04,285.14,381.99,287.19,379.35,287.19z"/>
	<path fill="#EB0A8C" stroke="#FFFFFF" stroke-width="2" stroke-miterlimit="10" d="M459.45,241.71v40.78
		c0,2.64-2.05,4.69-4.55,4.69c-2.64,0-4.69-2.05-4.69-4.69v-40.78c0-14.08-9.24-24.5-22-24.5c-13.2,0-23.47,10.86-23.47,24.5v0.73
		c0,0.15,0,0.29,0,0.44v39.61c0,2.64-2.05,4.69-4.69,4.69c-2.49,0-4.55-2.05-4.55-4.69v-69.97c0-2.49,2.05-4.55,4.55-4.55
		c2.64,0,4.69,2.05,4.69,4.55v5.28c6.01-6.16,14.23-9.83,23.47-9.83c8.95,0,17.16,3.52,22.88,10.12
		C456.51,224.26,459.45,232.62,459.45,241.71z"/>
	<path fill="#EB0A8C" stroke="#FFFFFF" stroke-width="2" stroke-miterlimit="10" d="M543.21,212.52v76.14
		c0,21.42-17.46,38.88-38.88,38.88c-14.23,0-27.29-7.63-34.03-20.1c-1.32-2.2-0.44-4.99,1.76-6.31c2.2-1.32,5.13-0.44,6.31,1.76
		c5.28,9.39,15.11,15.26,25.97,15.26c16.28,0,29.49-13.2,29.49-29.49v-14.38c-6.75,8.07-16.72,12.91-28.17,12.91
		c-21.42,0-37.41-17.02-37.41-39.61c0-22.59,15.99-39.61,37.41-39.61c11.44,0,21.42,4.84,28.17,12.76v-8.21
		c0-2.49,2.05-4.55,4.69-4.55C541.01,207.97,543.21,210.03,543.21,212.52z M533.82,247.58c0-17.31-12.18-30.37-28.17-30.37
		c-15.99,0-28.17,13.06-28.17,30.37c0,17.16,12.18,30.22,28.17,30.22C521.65,277.8,533.82,264.75,533.82,247.58z"/>
</g>
<g>
</g>
<g>
</g>
<g>
</g>
<g>
</g>
<g>
</g>
<g>
</g>
</svg>
